<svg width="21" height="18" viewBox="0 0 21 18" fill="none" xmlns="http://www.w3.org/2000/svg">
<path d="M18.9191 4.9275C19.7325 4.35 20.4166 3.62917 20.9741 2.79917V2.79833C20.23 3.12417 19.4383 3.34083 18.6116 3.44583C19.4616 2.93833 20.1108 2.14083 20.4158 1.18C19.6233 1.6525 18.7483 1.98583 17.8158 2.1725C17.0633 1.37083 15.9908 0.875 14.8208 0.875C12.5508 0.875 10.7233 2.7175 10.7233 4.97583C10.7233 5.30083 10.7508 5.61333 10.8183 5.91083C7.40996 5.74417 4.39329 4.11083 2.36662 1.62167C2.01329 2.23583 1.80495 2.93833 1.80495 3.69417C1.80495 5.11417 2.53579 6.3725 3.62662 7.10167C2.96745 7.08917 2.32162 6.8975 1.77412 6.59667V6.64167C1.77412 8.63417 3.19495 10.2892 5.05912 10.6708C4.72495 10.7625 4.36162 10.8058 3.98412 10.8058C3.72162 10.8058 3.45662 10.7908 3.20829 10.7358C3.73912 12.3592 5.24745 13.5533 7.03912 13.5925C5.64412 14.6833 3.87245 15.3408 1.95495 15.3408C1.61912 15.3408 1.29662 15.3258 0.974121 15.285C2.79079 16.4558 4.94245 17.125 7.26412 17.125C14.5 17.125 19.2158 11.0883 18.9191 4.9275Z" fill="#DF6951"/>
</svg>
